<svg xmlns="http://www.w3.org/2000/svg" viewBox="0 0 760 238" width="760" height="238"><defs><linearGradient id="moon" x1="0.05" y1="0.05" x2="0.95" y2="0.95">
<stop offset="0" stop-color="#35D0E0"/><stop offset="0.5" stop-color="#4B8BF5"/><stop offset="1" stop-color="#3B6FE0"/></linearGradient>
<radialGradient id="spark" cx="0.4" cy="0.35" r="0.75">
<stop offset="0" stop-color="#FFD79A"/><stop offset="0.45" stop-color="#FF8A3C"/><stop offset="1" stop-color="#FF5E22"/></radialGradient>
<radialGradient id="glow" cx="0.5" cy="0.5" r="0.5">
<stop offset="0" stop-color="#FF7A2C" stop-opacity="0.5"/><stop offset="1" stop-color="#FF7A2C" stop-opacity="0"/></radialGradient></defs><g transform="translate(44,44) scale(1.5)"><g transform="rotate(-18 50 50)"><circle cx="64" cy="53" r="19" fill="url(#glow)"/><path d="M54.09 17.57 A33 33 0 1 0 71.71 72.95 A30 30 0 0 1 54.09 17.57 Z" fill="url(#moon)"/><circle cx="64" cy="53" r="8.4" fill="url(#spark)"/></g></g><g transform="translate(239.96,160.79)"><path d="M119.40 -40.05V0.00H105.48V-37.95Q105.48 -47.07 100.92 -51.94Q96.36 -56.80 88.47 -56.80Q80.59 -56.80 75.97 -51.94Q71.34 -47.07 71.34 -37.95V0.00H57.42V-37.95Q57.42 -47.07 52.86 -51.94Q48.30 -56.80 40.42 -56.80Q32.53 -56.80 27.91 -51.94Q23.29 -47.07 23.29 -37.95V0.00H9.24V-67.89H23.29V-60.13Q26.74 -64.32 32.04 -66.66Q37.34 -69.00 43.37 -69.00Q51.51 -69.00 57.91 -65.55Q64.32 -62.10 67.77 -55.57Q70.85 -61.73 77.38 -65.37Q83.91 -69.00 91.43 -69.00Q99.44 -69.00 105.78 -65.68Q112.13 -62.35 115.77 -55.82Q119.40 -49.29 119.40 -40.05Z M135.23 -34.01Q135.23 -44.36 139.79 -52.37Q144.35 -60.38 152.23 -64.69Q160.12 -69.00 169.85 -69.00Q179.59 -69.00 187.47 -64.69Q195.36 -60.38 199.92 -52.37Q204.48 -44.36 204.48 -34.01Q204.48 -23.66 199.80 -15.65Q195.11 -7.64 187.04 -3.27Q178.97 1.11 169.24 1.11Q159.63 1.11 151.86 -3.27Q144.10 -7.64 139.66 -15.59Q135.23 -23.54 135.23 -34.01ZM190.06 -34.01Q190.06 -41.40 187.23 -46.52Q184.39 -51.63 179.71 -54.22Q175.03 -56.80 169.61 -56.80Q164.18 -56.80 159.56 -54.22Q154.94 -51.63 152.23 -46.52Q149.52 -41.40 149.52 -34.01Q149.52 -23.04 155.13 -17.07Q160.73 -11.09 169.24 -11.09Q174.66 -11.09 179.40 -13.68Q184.15 -16.27 187.10 -21.44Q190.06 -26.62 190.06 -34.01Z M219.07 -85.88Q219.07 -89.70 221.66 -92.29Q224.25 -94.88 228.07 -94.88Q231.76 -94.88 234.35 -92.29Q236.94 -89.70 236.94 -85.88Q236.94 -82.06 234.35 -79.48Q231.76 -76.89 228.07 -76.89Q224.25 -76.89 221.66 -79.48Q219.07 -82.06 219.07 -85.88ZM234.97 13.31Q234.97 23.29 229.98 27.79Q224.99 32.28 215.50 32.28H208.23V20.45H213.04Q217.35 20.45 219.13 18.79Q220.92 17.13 220.92 13.31V-67.89H234.97Z M251.41 -34.01Q251.41 -44.36 255.97 -52.37Q260.53 -60.38 268.42 -64.69Q276.30 -69.00 286.04 -69.00Q295.77 -69.00 303.66 -64.69Q311.54 -60.38 316.10 -52.37Q320.66 -44.36 320.66 -34.01Q320.66 -23.66 315.98 -15.65Q311.30 -7.64 303.23 -3.27Q295.16 1.11 285.42 1.11Q275.81 1.11 268.05 -3.27Q260.28 -7.64 255.85 -15.59Q251.41 -23.54 251.41 -34.01ZM306.24 -34.01Q306.24 -41.40 303.41 -46.52Q300.58 -51.63 295.89 -54.22Q291.21 -56.80 285.79 -56.80Q280.37 -56.80 275.75 -54.22Q271.13 -51.63 268.42 -46.52Q265.71 -41.40 265.71 -34.01Q265.71 -23.04 271.31 -17.07Q276.92 -11.09 285.42 -11.09Q290.84 -11.09 295.59 -13.68Q300.33 -16.27 303.29 -21.44Q306.24 -26.62 306.24 -34.01Z M389.23 -50.52V-38.69H338.58V-50.52Z M446.09 -69.00V-54.46H442.51Q434.26 -54.46 430.01 -50.27Q425.76 -46.08 425.76 -35.73V0.00H411.71V-67.89H425.76V-58.04Q428.84 -63.21 433.95 -66.11Q439.06 -69.00 446.09 -69.00Z M475.59 -91.18V0.00H461.55V-91.18Z" fill="#F2F5FA"/></g></svg>